<svg width="24" height="24" viewBox="0 0 24 24" fill="none" xmlns="http://www.w3.org/2000/svg">
<path d="M11.293 7.29308L7.2933 11.2928C7.10648 11.4808 7.00163 11.7351 7.00163 12.0001C7.00163 12.2652 7.10648 12.5194 7.2933 12.7074L11.293 16.7071C11.4811 16.8918 11.7345 16.9948 11.9981 16.9936C12.2617 16.9924 12.5142 16.8871 12.7006 16.7007C12.887 16.5143 12.9923 16.2618 12.9935 15.9982C12.9947 15.7346 12.8917 15.4812 12.707 15.2931L10.4141 13.0001H16C16.2652 13.0001 16.5196 12.8947 16.7071 12.7072C16.8946 12.5196 17 12.2653 17 12.0001C17 11.7349 16.8946 11.4805 16.7071 11.293C16.5196 11.1054 16.2652 11.0001 16 11.0001H10.4141L12.7071 8.70708C12.8926 8.51916 12.9963 8.26546 12.9955 8.00136C12.9946 7.73727 12.8893 7.48423 12.7026 7.29748C12.5158 7.11074 12.2628 7.00547 11.9987 7.00464C11.7346 7.00382 11.4809 7.10751 11.293 7.29308Z" fill="black"/>
</svg>
