<svg width="100" height="30" viewBox="0 0 100 30" fill="none" xmlns="http://www.w3.org/2000/svg">
<g clip-path="url(#clip0_212_224)">
<path d="M5.06763 25.02C5.06763 25.02 4.43443 21.0698 5.06763 21.0698C5.82548 21.0698 8.23649 21.6486 10.5097 21.6486C12.783 21.6486 16.0206 21.1379 17.9149 19.2313C19.8093 17.3247 20.016 14.6868 20.016 12.5583C20.016 10.4297 19.8782 8.30248 18.1561 6.73636C16.434 5.17024 14.5395 5 11.3708 5C8.20209 5 6.68565 5.78388 5.41211 7.04278C4.13858 8.30167 4 10.4126 4 12.5583C4 14.7039 4.17213 16.4055 5.06766 17.2907C6.20429 18.4142 8.68322 18.6866 10.5097 18.6866C12.3362 18.6866 14.6427 18.3469 15.7794 16.9843C16.9161 15.6216 16.8128 14.1244 16.8128 12.5583C16.8128 10.9921 16.5709 9.69847 15.7794 8.91612C14.9879 8.13378 13.7818 8.16639 12.0252 8.16639C10.2686 8.16639 8.71786 8.16783 7.96084 8.91612C7.20383 9.66442 7.16876 10.9419 7.16876 12.2186C7.16876 13.4953 7.40979 15.1458 7.40979 15.1458" stroke="#00A98D" stroke-width="2" stroke-linecap="round"/>
<path d="M45.94 12.48C45.94 13.2933 45.7533 14.04 45.38 14.72C45.0067 15.3867 44.4333 15.9267 43.66 16.34C42.8867 16.7533 41.9267 16.96 40.78 16.96H38.66V22H35.24V7.96H40.78C41.9 7.96 42.8467 8.15333 43.62 8.54C44.3933 8.92667 44.9733 9.46 45.36 10.14C45.7467 10.82 45.94 11.6 45.94 12.48ZM40.52 14.24C41.1733 14.24 41.66 14.0867 41.98 13.78C42.3 13.4733 42.46 13.04 42.46 12.48C42.46 11.92 42.3 11.4867 41.98 11.18C41.66 10.8733 41.1733 10.72 40.52 10.72H38.66V14.24H40.52ZM58.7405 10.84V22H55.3205V20.48C54.9738 20.9733 54.5005 21.3733 53.9005 21.68C53.3138 21.9733 52.6605 22.12 51.9405 22.12C51.0871 22.12 50.3338 21.9333 49.6805 21.56C49.0271 21.1733 48.5205 20.62 48.1605 19.9C47.8005 19.18 47.6205 18.3333 47.6205 17.36V10.84H51.0205V16.9C51.0205 17.6467 51.2138 18.2267 51.6005 18.64C51.9871 19.0533 52.5071 19.26 53.1605 19.26C53.8271 19.26 54.3538 19.0533 54.7405 18.64C55.1271 18.2267 55.3205 17.6467 55.3205 16.9V10.84H58.7405ZM64.617 12.7C65.017 12.0867 65.517 11.6067 66.117 11.26C66.717 10.9 67.3837 10.72 68.117 10.72V14.34H67.177C66.3237 14.34 65.6837 14.5267 65.257 14.9C64.8304 15.26 64.617 15.9 64.617 16.82V22H61.197V10.84H64.617V12.7ZM80.2717 16.24C80.2717 16.56 80.2517 16.8933 80.2117 17.24H72.4717C72.5251 17.9333 72.7451 18.4667 73.1317 18.84C73.5317 19.2 74.0184 19.38 74.5917 19.38C75.4451 19.38 76.0384 19.02 76.3717 18.3H80.0117C79.8251 19.0333 79.4851 19.6933 78.9917 20.28C78.5117 20.8667 77.9051 21.3267 77.1717 21.66C76.4384 21.9933 75.6184 22.16 74.7117 22.16C73.6184 22.16 72.6451 21.9267 71.7917 21.46C70.9384 20.9933 70.2717 20.3267 69.7917 19.46C69.3117 18.5933 69.0717 17.58 69.0717 16.42C69.0717 15.26 69.3051 14.2467 69.7717 13.38C70.2517 12.5133 70.9184 11.8467 71.7717 11.38C72.6251 10.9133 73.6051 10.68 74.7117 10.68C75.7917 10.68 76.7517 10.9067 77.5917 11.36C78.4317 11.8133 79.0851 12.46 79.5517 13.3C80.0317 14.14 80.2717 15.12 80.2717 16.24ZM76.7717 15.34C76.7717 14.7533 76.5717 14.2867 76.1717 13.94C75.7717 13.5933 75.2717 13.42 74.6717 13.42C74.0984 13.42 73.6117 13.5867 73.2117 13.92C72.8251 14.2533 72.5851 14.7267 72.4917 15.34H76.7717ZM85.4959 7.2V22H82.0759V7.2H85.4959ZM99.3744 10.84L92.3744 27.3H88.6944L91.2544 21.62L86.7144 10.84H90.5344L93.1144 17.82L95.6744 10.84H99.3744Z" fill="#00A98D"/>
</g>
<defs>
<clipPath id="clip0_212_224">
<rect width="100" height="30" fill="white"/>
</clipPath>
</defs>
</svg>
