<svg width="92" height="30" viewBox="0 0 92 30" fill="none" xmlns="http://www.w3.org/2000/svg">
<g clip-path="url(#clip0_279_151)">
<path d="M5.06763 25.02C5.06763 25.02 4.43443 21.0698 5.06763 21.0698C5.82548 21.0698 8.23649 21.6486 10.5097 21.6486C12.783 21.6486 16.0206 21.1379 17.9149 19.2313C19.8093 17.3247 20.016 14.6868 20.016 12.5583C20.016 10.4297 19.8782 8.30248 18.1561 6.73636C16.434 5.17024 14.5395 5 11.3708 5C8.20209 5 6.68565 5.78388 5.41211 7.04278C4.13858 8.30167 4 10.4126 4 12.5583C4 14.7039 4.17213 16.4055 5.06766 17.2907C6.20429 18.4142 8.68322 18.6866 10.5097 18.6866C12.3362 18.6866 14.6427 18.3469 15.7794 16.9843C16.9161 15.6216 16.8128 14.1244 16.8128 12.5583C16.8128 10.9921 16.5709 9.69847 15.7794 8.91612C14.9879 8.13378 13.7818 8.16639 12.0252 8.16639C10.2686 8.16639 8.71786 8.16783 7.96084 8.91612C7.20383 9.66442 7.16876 10.9419 7.16876 12.2186C7.16876 13.4953 7.40979 15.1458 7.40979 15.1458" stroke="#00A98D" stroke-width="2" stroke-linecap="round"/>
<path d="M37.94 12.48C37.94 13.2933 37.7533 14.04 37.38 14.72C37.0067 15.3867 36.4333 15.9267 35.66 16.34C34.8867 16.7533 33.9267 16.96 32.78 16.96H30.66V22H27.24V7.96H32.78C33.9 7.96 34.8467 8.15333 35.62 8.54C36.3933 8.92667 36.9733 9.46 37.36 10.14C37.7467 10.82 37.94 11.6 37.94 12.48ZM32.52 14.24C33.1733 14.24 33.66 14.0867 33.98 13.78C34.3 13.4733 34.46 13.04 34.46 12.48C34.46 11.92 34.3 11.4867 33.98 11.18C33.66 10.8733 33.1733 10.72 32.52 10.72H30.66V14.24H32.52ZM50.7405 10.84V22H47.3205V20.48C46.9738 20.9733 46.5005 21.3733 45.9005 21.68C45.3138 21.9733 44.6605 22.12 43.9405 22.12C43.0871 22.12 42.3338 21.9333 41.6805 21.56C41.0271 21.1733 40.5205 20.62 40.1605 19.9C39.8005 19.18 39.6205 18.3333 39.6205 17.36V10.84H43.0205V16.9C43.0205 17.6467 43.2138 18.2267 43.6005 18.64C43.9871 19.0533 44.5071 19.26 45.1605 19.26C45.8271 19.26 46.3538 19.0533 46.7405 18.64C47.1271 18.2267 47.3205 17.6467 47.3205 16.9V10.84H50.7405ZM56.617 12.7C57.017 12.0867 57.517 11.6067 58.117 11.26C58.717 10.9 59.3837 10.72 60.117 10.72V14.34H59.177C58.3237 14.34 57.6837 14.5267 57.257 14.9C56.8304 15.26 56.617 15.9 56.617 16.82V22H53.197V10.84H56.617V12.7ZM72.2717 16.24C72.2717 16.56 72.2517 16.8933 72.2117 17.24H64.4717C64.5251 17.9333 64.7451 18.4667 65.1317 18.84C65.5317 19.2 66.0184 19.38 66.5917 19.38C67.4451 19.38 68.0384 19.02 68.3717 18.3H72.0117C71.8251 19.0333 71.4851 19.6933 70.9917 20.28C70.5117 20.8667 69.9051 21.3267 69.1717 21.66C68.4384 21.9933 67.6184 22.16 66.7117 22.16C65.6184 22.16 64.6451 21.9267 63.7917 21.46C62.9384 20.9933 62.2717 20.3267 61.7917 19.46C61.3117 18.5933 61.0717 17.58 61.0717 16.42C61.0717 15.26 61.3051 14.2467 61.7717 13.38C62.2517 12.5133 62.9184 11.8467 63.7717 11.38C64.6251 10.9133 65.6051 10.68 66.7117 10.68C67.7917 10.68 68.7517 10.9067 69.5917 11.36C70.4317 11.8133 71.0851 12.46 71.5517 13.3C72.0317 14.14 72.2717 15.12 72.2717 16.24ZM68.7717 15.34C68.7717 14.7533 68.5717 14.2867 68.1717 13.94C67.7717 13.5933 67.2717 13.42 66.6717 13.42C66.0984 13.42 65.6117 13.5867 65.2117 13.92C64.8251 14.2533 64.5851 14.7267 64.4917 15.34H68.7717ZM77.4959 7.2V22H74.0759V7.2H77.4959ZM91.3744 10.84L84.3744 27.3H80.6944L83.2544 21.62L78.7144 10.84H82.5344L85.1144 17.82L87.6744 10.84H91.3744Z" fill="#00A98D"/>
</g>
<defs>
<clipPath id="clip0_279_151">
<rect width="92" height="30" fill="white"/>
</clipPath>
</defs>
</svg>
